<svg width="372" height="145" viewBox="0 0 372 145" fill="none" xmlns="http://www.w3.org/2000/svg">
<circle cx="72.1472" cy="72.1472" r="72.1472" fill="#0B0B0B"/>
<circle cx="72.1472" cy="72.1472" r="39.4768" fill="black"/>
<g filter="url(#filter0_d_80023_2732)">
<path d="M106.456 59.5859C106.456 59.5859 73.0433 66.8396 46.2719 57.5894C73.7893 45.9287 88.4879 110.4 106.456 59.5859C114.352 110.4 24.0957 87.0549 42.1793 63.0273C44.9268 100.871 73.5135 81.8134 106.456 59.5859Z" fill="#00FF66"/>
</g>
<circle cx="92.5668" cy="73.5084" r="2.72254" fill="#FFF6F6"/>
<path d="M198.644 55.072L182.708 100H169.012L153.076 55.072H164.724L175.86 88.992L187.06 55.072H198.644ZM220.05 55.072C224.786 55.072 228.925 56.0107 232.466 57.888C236.007 59.7653 238.738 62.4107 240.658 65.824C242.621 69.1947 243.602 73.0987 243.602 77.536C243.602 81.9307 242.621 85.8347 240.658 89.248C238.738 92.6613 235.986 95.3067 232.402 97.184C228.861 99.0613 224.743 100 220.05 100H203.218V55.072H220.05ZM219.346 90.528C223.485 90.528 226.706 89.3973 229.01 87.136C231.314 84.8747 232.466 81.6747 232.466 77.536C232.466 73.3973 231.314 70.176 229.01 67.872C226.706 65.568 223.485 64.416 219.346 64.416H214.162V90.528H219.346ZM260.662 70.24C261.942 68.2773 263.542 66.7413 265.462 65.632C267.382 64.48 269.515 63.904 271.862 63.904V75.488H268.854C266.123 75.488 264.075 76.0853 262.71 77.28C261.345 78.432 260.662 80.48 260.662 83.424V100H249.718V64.288H260.662V70.24ZM282.597 60.576C280.677 60.576 279.098 60.0213 277.861 58.912C276.666 57.76 276.069 56.352 276.069 54.688C276.069 52.9813 276.666 51.5733 277.861 50.464C279.098 49.312 280.677 48.736 282.597 48.736C284.474 48.736 286.01 49.312 287.205 50.464C288.442 51.5733 289.061 52.9813 289.061 54.688C289.061 56.352 288.442 57.76 287.205 58.912C286.01 60.0213 284.474 60.576 282.597 60.576ZM288.037 64.288V100H277.093V64.288H288.037ZM312.032 89.76L319.776 64.288H331.424L318.752 100H305.248L292.576 64.288H304.288L312.032 89.76ZM369.694 81.568C369.694 82.592 369.631 83.6587 369.503 84.768H344.735C344.905 86.9867 345.609 88.6933 346.847 89.888C348.127 91.04 349.684 91.616 351.519 91.616C354.249 91.616 356.148 90.464 357.215 88.16H368.863C368.265 90.5067 367.177 92.6187 365.599 94.496C364.063 96.3733 362.121 97.8453 359.775 98.912C357.428 99.9787 354.804 100.512 351.903 100.512C348.404 100.512 345.289 99.7653 342.559 98.272C339.828 96.7787 337.695 94.6453 336.159 91.872C334.623 89.0987 333.855 85.856 333.855 82.144C333.855 78.432 334.601 75.1893 336.095 72.416C337.631 69.6427 339.764 67.5093 342.495 66.016C345.225 64.5227 348.361 63.776 351.903 63.776C355.359 63.776 358.431 64.5013 361.119 65.952C363.807 67.4027 365.897 69.472 367.391 72.16C368.927 74.848 369.694 77.984 369.694 81.568ZM358.495 78.688C358.495 76.8107 357.855 75.3173 356.575 74.208C355.295 73.0987 353.695 72.544 351.775 72.544C349.94 72.544 348.383 73.0773 347.103 74.144C345.865 75.2107 345.097 76.7253 344.799 78.688H358.495Z" fill="black"/>
<defs>
<filter id="filter0_d_80023_2732" x="36.7783" y="52.1484" width="73.168" height="39.7004" filterUnits="userSpaceOnUse" color-interpolation-filters="sRGB">
<feFlood flood-opacity="0" result="BackgroundImageFix"/>
<feColorMatrix in="SourceAlpha" type="matrix" values="0 0 0 0 0 0 0 0 0 0 0 0 0 0 0 0 0 0 127 0" result="hardAlpha"/>
<feOffset dy="-1"/>
<feGaussianBlur stdDeviation="1.5"/>
<feComposite in2="hardAlpha" operator="out"/>
<feColorMatrix type="matrix" values="0 0 0 0 0.245128 0 0 0 0 0.259167 0 0 0 0 0.242321 0 0 0 1 0"/>
<feBlend mode="normal" in2="BackgroundImageFix" result="effect1_dropShadow_80023_2732"/>
<feBlend mode="normal" in="SourceGraphic" in2="effect1_dropShadow_80023_2732" result="shape"/>
</filter>
</defs>
</svg>
